<?xml version="1.0" encoding="UTF-8"?>
<svg width="201px" height="416px" viewBox="0 0 201 416" version="1.1" xmlns="http://www.w3.org/2000/svg" xmlns:xlink="http://www.w3.org/1999/xlink">
    <title>iPhone-large</title>
    <defs>
        <path d="M37.017575,0.884615385 L163.251656,0.884615385 C176.110099,0.884615385 180.772881,2.22344631 185.473736,4.73749092 C190.174591,7.25153553 193.863849,10.9407938 196.377894,15.6416485 C198.891938,20.3425032 200.230769,25.0052855 200.230769,37.8637288 L200.230769,378.136271 C200.230769,390.994715 198.891938,395.657497 196.377894,400.358351 C193.863849,405.059206 190.174591,408.748464 185.473736,411.262509 C180.772881,413.776554 176.110099,415.115385 163.251656,415.115385 L37.017575,415.115385 C24.1591316,415.115385 19.4963494,413.776554 14.7954947,411.262509 C10.09464,408.748464 6.40538168,405.059206 3.89133707,400.358351 C1.37729247,395.657497 0.0384615385,390.994715 0.0384615385,378.136271 L0.0384615385,37.8637288 C0.0384615385,25.0052855 1.37729247,20.3425032 3.89133707,15.6416485 C6.40538168,10.9407938 10.09464,7.25153553 14.7954947,4.73749092 C19.4963494,2.22344631 24.1591316,0.884615385 37.017575,0.884615385 Z" id="path-1"></path>
    </defs>
    <g id="1600x800" stroke="none" stroke-width="1" fill="none" fill-rule="evenodd">
        <g id="HOME-13-1600x800" transform="translate(-408.000000, -1748.000000)">
            <g id="Group-13" transform="translate(231.000000, 1748.000000)">
                <g id="Frame" transform="translate(177.000000, 0.000000)">
                    <mask id="mask-2" fill="white">
                        <use xlink:href="#path-1"></use>
                    </mask>
                    <use id="Mask" fill="#000000" xlink:href="#path-1"></use>
                </g>
            </g>
        </g>
    </g>
</svg>