<?xml version="1.0" standalone="no"?>
<!DOCTYPE svg PUBLIC "-//W3C//DTD SVG 20010904//EN"
 "http://www.w3.org/TR/2001/REC-SVG-20010904/DTD/svg10.dtd">
<svg version="1.0" xmlns="http://www.w3.org/2000/svg"
 width="15pt" height="13pt" viewBox="0 0 512.000000 512.000000"
 preserveAspectRatio="xMidYMid meet">

<g transform="translate(0.000000,512.000000) scale(0.100000,-0.100000)"
fill="#000000" stroke="none">
<path d="M2470 5104 c-38 -14 -110 -81 -456 -428 -385 -384 -413 -414 -429
-465 -68 -210 145 -400 340 -304 17 8 110 94 208 191 l177 177 0 -1272 c0
-882 3 -1288 11 -1323 23 -108 126 -190 239 -190 113 0 216 82 239 190 8 35
11 441 11 1323 l0 1272 178 -177 c97 -97 191 -183 207 -191 195 -96 408 95
340 304 -16 50 -45 82 -419 457 -286 288 -414 409 -446 424 -56 28 -141 33
-200 12z"/>
<path d="M841 3459 c-80 -24 -147 -93 -170 -175 -8 -27 -11 -496 -11 -1555 0
-1702 -6 -1574 75 -1654 81 -81 -69 -75 1825 -75 1894 0 1744 -6 1825 75 81
81 76 -50 73 1675 -3 1495 -3 1536 -22 1574 -25 50 -72 97 -122 122 -37 18
-63 19 -434 19 -387 0 -396 0 -436 -22 -147 -79 -184 -266 -75 -386 67 -75 94
-82 359 -85 l232 -4 0 -1234 0 -1234 -1400 0 -1400 0 0 1234 0 1234 233 4
c264 3 291 10 358 85 109 120 72 307 -75 386 -40 21 -52 22 -421 24 -228 1
-393 -2 -414 -8z"/>
</g>
</svg>